<?xml version="1.0" encoding="utf-8"?>
<!-- Generator: Adobe Illustrator 22.1.0, SVG Export Plug-In . SVG Version: 6.00 Build 0)  -->
<svg version="1.1" id="Layer_1" xmlns="http://www.w3.org/2000/svg" xmlns:xlink="http://www.w3.org/1999/xlink" x="0px" y="0px"
	 viewBox="0 0 1000 1000" style="enable-background:new 0 0 1000 1000;" xml:space="preserve">
<style type="text/css">
	.st0{fill:url(#SVGID_1_);}
	.st1{fill:url(#SVGID_2_);}
	.st2{fill:url(#SVGID_3_);}
	.st3{fill:url(#SVGID_4_);}
	.st4{fill:url(#SVGID_5_);}
	.st5{fill:url(#SVGID_6_);}
	.st6{fill:url(#SVGID_7_);}
	.st7{fill:url(#SVGID_8_);}
	.st8{fill:url(#SVGID_9_);}
	.st9{fill:url(#SVGID_10_);}
	.st10{fill:url(#SVGID_11_);}
	.st11{fill:url(#SVGID_12_);}
	.st12{fill:url(#SVGID_13_);}
	.st13{fill:url(#SVGID_14_);}
	.st14{fill:url(#SVGID_15_);}
	.st15{fill:url(#SVGID_16_);}
	.st16{fill:url(#SVGID_17_);}
	.st17{fill:url(#SVGID_18_);}
	.st18{fill:url(#SVGID_19_);}
	.st19{fill:url(#SVGID_20_);}
	.st20{fill:url(#SVGID_21_);}
	.st21{fill:url(#SVGID_22_);}
	.st22{fill:url(#SVGID_23_);}
	.st23{fill:url(#SVGID_24_);}
	.st24{fill:url(#SVGID_25_);}
	.st25{fill:url(#SVGID_26_);}
	.st26{fill:url(#SVGID_27_);}
	.st27{fill:url(#SVGID_28_);}
	.st28{fill:url(#SVGID_29_);}
	.st29{fill:url(#SVGID_30_);}
	.st30{fill:url(#SVGID_31_);}
	.st31{fill:url(#SVGID_32_);}
	.st32{fill:url(#SVGID_33_);}
	.st33{fill:url(#SVGID_34_);}
	.st34{fill:url(#SVGID_35_);}
	.st35{fill:url(#SVGID_36_);}
	.st36{fill:url(#SVGID_37_);}
	.st37{fill:url(#SVGID_38_);}
	.st38{fill:url(#SVGID_39_);}
	.st39{fill:url(#SVGID_40_);}
	.st40{fill:url(#SVGID_41_);}
	.st41{fill:url(#SVGID_42_);}
	.st42{fill:url(#SVGID_43_);}
	.st43{fill:url(#SVGID_44_);}
	.st44{fill:url(#SVGID_45_);}
	.st45{fill:url(#SVGID_46_);}
	.st46{fill:url(#SVGID_47_);}
	.st47{fill:url(#SVGID_48_);}
	.st48{fill:url(#SVGID_49_);}
	.st49{fill:url(#SVGID_50_);}
	.st50{fill:url(#SVGID_51_);}
	.st51{fill:url(#SVGID_52_);}
	.st52{fill:url(#SVGID_53_);}
	.st53{fill:url(#SVGID_54_);}
	.st54{fill:url(#SVGID_55_);}
	.st55{fill:url(#SVGID_56_);}
	.st56{fill:url(#SVGID_57_);}
	.st57{fill:url(#SVGID_58_);}
	.st58{fill:url(#SVGID_59_);}
</style>
<radialGradient id="SVGID_1_" cx="199" cy="-167" r="1002.9656" gradientUnits="userSpaceOnUse">
	<stop  offset="0" style="stop-color:#B16952"/>
	<stop  offset="1" style="stop-color:#3B1D15"/>
</radialGradient>
<rect class="st0" width="1000" height="1000"/>
<g>
	<g>
		<g>
			<linearGradient id="SVGID_2_" gradientUnits="userSpaceOnUse" x1="547.7104" y1="317.61" x2="547.7104" y2="819.8894">
				<stop  offset="5.618000e-03" style="stop-color:#FBC926"/>
				<stop  offset="0.2528" style="stop-color:#FFFBCC"/>
				<stop  offset="0.3045" style="stop-color:#F8F0BB"/>
				<stop  offset="0.4072" style="stop-color:#E7D28E"/>
				<stop  offset="0.55" style="stop-color:#CCA246"/>
				<stop  offset="0.5955" style="stop-color:#C3922E"/>
				<stop  offset="0.8708" style="stop-color:#EED688"/>
				<stop  offset="1" style="stop-color:#FFFBCC"/>
			</linearGradient>
			<path class="st1" d="M616.5,436.5c-0.8,1.9-1.7,3.8-2.5,5.6c-6.9,15.3-13.7,30.7-20.2,46.3c-7.3,17.6-13.9,35.7-23.7,52.2
				c-6.1,10.2-13.1,20.3-23.2,26.9c-0.9,0.6-1.9,1.2-2.8,1.8c-7.9,4.6-16.8,7.3-25.5,10c-9.1,2.9-17.7,6.4-26.1,11.1
				c-0.7,0.4-1.2,0.8-1.7,1.3c0.3-2.3,0.9-4.7,1.5-6.9c4.4-15.5,13.7-29.3,24-41.4c5.5-6.5,11.5-12.7,18-18.2
				c-20.6,11.3-34,24.7-42.5,36.3c-0.3-1.9-0.8-3.9-1.3-5.9c-2.9-10.4-6.7-18.5-11.7-25c11-28.4,29.6-39.3,73-55.9
				C589.7,460,609.4,443.4,616.5,436.5z"/>
			<linearGradient id="SVGID_3_" gradientUnits="userSpaceOnUse" x1="432.2521" y1="317.61" x2="432.2521" y2="819.8894">
				<stop  offset="5.618000e-03" style="stop-color:#FBC926"/>
				<stop  offset="0.2528" style="stop-color:#FFFBCC"/>
				<stop  offset="0.3045" style="stop-color:#F8F0BB"/>
				<stop  offset="0.4072" style="stop-color:#E7D28E"/>
				<stop  offset="0.55" style="stop-color:#CCA246"/>
				<stop  offset="0.5955" style="stop-color:#C3922E"/>
				<stop  offset="0.8708" style="stop-color:#EED688"/>
				<stop  offset="1" style="stop-color:#FFFBCC"/>
			</linearGradient>
			<path class="st2" d="M439,546.6c32.7,18,38.5,43.6,38.5,43.6s6.6-13.5,1.7-31.6c-7.2-25.7-18.9-33.4-52.1-46.1
				c-25.5-9.8-38.9-21-43.7-25.7c0.6,1.3,1.1,2.5,1.7,3.8c4.7,10.4,9.3,20.8,13.6,31.3c5,11.9,9.4,24.1,16,35.3
				c4.1,6.9,8.9,13.7,15.7,18.2c0.6,0.4,1.3,0.8,1.9,1.2c5.4,3.1,11.4,4.9,17.2,6.8c6.2,2,12,4.3,17.6,7.5c0.4,0.2,0.8,0.6,1.2,0.9
				c-0.2-1.6-0.6-3.2-1.1-4.7c-3-10.4-9.2-19.8-16.2-28C447.4,554.5,443.4,550.3,439,546.6"/>
		</g>
		<g>
			<linearGradient id="SVGID_4_" gradientUnits="userSpaceOnUse" x1="496.8679" y1="317.61" x2="496.8679" y2="819.8894">
				<stop  offset="5.618000e-03" style="stop-color:#FBC926"/>
				<stop  offset="0.2528" style="stop-color:#FFFBCC"/>
				<stop  offset="0.3045" style="stop-color:#F8F0BB"/>
				<stop  offset="0.4072" style="stop-color:#E7D28E"/>
				<stop  offset="0.55" style="stop-color:#CCA246"/>
				<stop  offset="0.5955" style="stop-color:#C3922E"/>
				<stop  offset="0.8708" style="stop-color:#EED688"/>
				<stop  offset="1" style="stop-color:#FFFBCC"/>
			</linearGradient>
			<path class="st3" d="M596.8,440.6c-4.3,3.1-9.7,6.6-16.1,10.2c-16.1-24.6-43.9-40.9-75.5-40.9c-48.6,0-88.3,38.7-90.1,86.8
				c-6.4-3.3-12.6-6.8-18.2-10.3c6.7-53.9,52.6-95.5,108.3-95.5C543.6,390.9,577.3,410.6,596.8,440.6z"/>
			<linearGradient id="SVGID_5_" gradientUnits="userSpaceOnUse" x1="531.8003" y1="317.61" x2="531.8003" y2="819.8894">
				<stop  offset="5.618000e-03" style="stop-color:#FBC926"/>
				<stop  offset="0.2528" style="stop-color:#FFFBCC"/>
				<stop  offset="0.3045" style="stop-color:#F8F0BB"/>
				<stop  offset="0.4072" style="stop-color:#E7D28E"/>
				<stop  offset="0.55" style="stop-color:#CCA246"/>
				<stop  offset="0.5955" style="stop-color:#C3922E"/>
				<stop  offset="0.8708" style="stop-color:#EED688"/>
				<stop  offset="1" style="stop-color:#FFFBCC"/>
			</linearGradient>
			<path class="st4" d="M614.4,500c0,60.3-48.9,109.1-109.1,109.1c-20.5,0-39.7-5.6-56-15.5c16.9,5.2,34.8,5.8,52.5,1.8
				c9-2,17.8-4.7,26-8.1c0,0,0.1,0,0.1,0c20.6-8.5,38.3-21.8,50.3-42c6.6-11.1,11.8-22.8,16.6-34.4c1.2-2.9,2.4-5.7,3.5-8.5
				c1.4-3.5,2.8-7,4.3-10.4c2.6-6.2,5.3-12.6,8.3-19.6C613.2,481.2,614.4,490.5,614.4,500z"/>
		</g>
		<linearGradient id="SVGID_6_" gradientUnits="userSpaceOnUse" x1="471.6615" y1="317.61" x2="471.6615" y2="819.8894">
			<stop  offset="5.618000e-03" style="stop-color:#FBC926"/>
			<stop  offset="0.2528" style="stop-color:#FFFBCC"/>
			<stop  offset="0.3045" style="stop-color:#F8F0BB"/>
			<stop  offset="0.4072" style="stop-color:#E7D28E"/>
			<stop  offset="0.55" style="stop-color:#CCA246"/>
			<stop  offset="0.5955" style="stop-color:#C3922E"/>
			<stop  offset="0.8708" style="stop-color:#EED688"/>
			<stop  offset="1" style="stop-color:#FFFBCC"/>
		</linearGradient>
		<path class="st5" d="M495.1,492.4c-9.4,7.4-16.3,15.9-21.7,27.2c-0.4-2.8-0.7-5.7-0.8-8.5c-0.2-4.7-0.2-9.6,0.4-14.3
			c-3.4,10.4-4.3,19.4-3.9,26.7c-5.6-4.7-12.3-8.6-20.4-12.4c-1.5-11.1,2.7-22.3,11.6-40.7c10.2-21,11.9-35.4,12.2-40.9
			c0.4,1.1,0.8,2.1,1.2,3.2c3.2,8.6,6.5,17.2,9.9,25.8c3.9,9.7,8.3,19.2,10.7,29.5C494.5,489.4,494.8,490.9,495.1,492.4z"/>
	</g>
</g>
</svg>
